<?xml version="1.0" encoding="utf-8"?>
<!-- Generator: Adobe Illustrator 27.7.0, SVG Export Plug-In . SVG Version: 6.00 Build 0)  -->
<svg version="1.1" id="Layer_1" xmlns="http://www.w3.org/2000/svg" xmlns:xlink="http://www.w3.org/1999/xlink" x="0px" y="0px"
	 viewBox="0 0 24 24" style="enable-background:new 0 0 24 24;" xml:space="preserve">
<style type="text/css">
	.st0{fill:#FFFFFF;}
</style>
<path class="st0" d="M12,5.5c1.9,0,3.5,1.6,3.5,3.5s-1.6,3.5-3.5,3.5S8.5,10.9,8.5,9S10.1,5.5,12,5.5 M5,8c0.6,0,1.1,0.1,1.5,0.4
	c-0.2,1.4,0.3,2.9,1.1,4C7.2,13.3,6.2,14,5,14c-1.7,0-3-1.3-3-3S3.3,8,5,8 M19,8c1.7,0,3,1.3,3,3s-1.3,3-3,3c-1.2,0-2.2-0.7-2.7-1.6
	c0.9-1.1,1.3-2.5,1.1-4C17.9,8.1,18.4,8,19,8 M5.5,18.2c0-2.1,2.9-3.8,6.5-3.8s6.5,1.7,6.5,3.8V20h-13V18.2 M0,20v-1.5
	c0-1.4,1.9-2.6,4.4-2.9c-0.6,0.7-0.9,1.6-0.9,2.6V20H0 M24,20h-3.5v-1.8c0-1-0.4-2-1-2.6c2.6,0.3,4.5,1.5,4.5,2.9V20z"/>
</svg>
