<?xml version="1.0" encoding="utf-8"?>
<!-- Generator: Adobe Illustrator 27.7.0, SVG Export Plug-In . SVG Version: 6.00 Build 0)  -->
<svg version="1.1" id="Layer_1" xmlns="http://www.w3.org/2000/svg" xmlns:xlink="http://www.w3.org/1999/xlink" x="0px" y="0px"
	 viewBox="0 0 24 24" style="enable-background:new 0 0 24 24;" xml:space="preserve">
<style type="text/css">
	.st0{fill:#FFFFFF;}
</style>
<path class="st0" d="M2,3h20c1,0,2,1,2,2v14c0,1-1,2-2,2H2c-1,0-2-1-2-2V5C0,4,0.9,3,2,3 M14,6v1h8V6H14 M14,8v1h7.5H22V8H14 M14,10
	v1h7v-1H14 M8,13.9c-2,0-6,1.1-6,3.1v1h12v-1C14,15,10,13.9,8,13.9 M8,6C6.3,6,5,7.3,5,9s1.3,3,3,3s3-1.3,3-3S9.7,6,8,6z"/>
</svg>
