<?xml version="1.0" encoding="utf-8"?>
<!-- Generator: Adobe Illustrator 27.7.0, SVG Export Plug-In . SVG Version: 6.00 Build 0)  -->
<svg version="1.1" id="Layer_1" xmlns="http://www.w3.org/2000/svg" xmlns:xlink="http://www.w3.org/1999/xlink" x="0px" y="0px"
	 viewBox="0 0 24 24" style="enable-background:new 0 0 24 24;" xml:space="preserve">
<style type="text/css">
	.st0{fill:#FFFFFF;}
</style>
<path class="st0" d="M11,18h2v-2h-2V18 M12,6c-2.2,0-4,1.8-4,4h2c0-1.1,0.9-2,2-2s2,0.9,2,2c0,2-3,1.8-3,5h2c0-2.2,3-2.5,3-5
	C16,7.8,14.2,6,12,6 M5,3h14c1.1,0,2,0.9,2,2v14c0,1.1-0.9,2-2,2H5c-1.1,0-2-0.9-2-2V5C3,3.9,3.9,3,5,3z"/>
</svg>
